<svg width="38" height="37" viewBox="0 0 38 37" fill="none" xmlns="http://www.w3.org/2000/svg">
<path d="M19 0C8.50819 0 0 8.28429 0 18.5C0 28.7157 8.50819 37 19 37C29.4918 37 38 28.7157 38 18.5C38 8.28429 29.4918 0 19 0ZM29.8443 22.8797C29.7916 24.0105 29.6069 24.7826 29.3373 25.4584C28.7705 26.8854 27.612 28.0134 26.1465 28.5652C25.4527 28.8278 24.6595 29.0073 23.4984 29.059C22.3349 29.1106 21.9632 29.123 19.0003 29.123C16.037 29.123 15.6657 29.1106 14.5019 29.059C13.3408 29.0073 12.5476 28.8278 11.8538 28.5652C11.1256 28.2985 10.4663 27.8804 9.92125 27.3398C9.36635 26.8094 8.93698 26.1672 8.66301 25.4584C8.39339 24.7829 8.20871 24.0105 8.15594 22.88C8.10231 21.7469 8.08984 21.385 8.08984 18.5C8.08984 15.615 8.10231 15.2531 8.15565 14.1203C8.20842 12.9895 8.39281 12.2174 8.66243 11.5416C8.9364 10.8328 9.36606 10.1906 9.92125 9.66016C10.466 9.11958 11.1256 8.70152 11.8535 8.43475C12.5476 8.17223 13.3405 7.99269 14.5019 7.94103C15.6654 7.88937 16.037 7.87695 19 7.87695C21.963 7.87695 22.3346 7.88937 23.4981 7.94131C24.6595 7.99269 25.4524 8.17223 26.1465 8.43447C26.8744 8.70123 27.534 9.11958 28.079 9.66016C28.6339 10.1909 29.0636 10.8328 29.3373 11.5416C29.6072 12.2174 29.7916 12.9895 29.8446 14.1203C29.8977 15.2531 29.9102 15.615 29.9102 18.5C29.9102 21.385 29.8977 21.7469 29.8443 22.8797Z" fill="white"/>
</svg>
